<svg width="400" height="400" viewBox="0 0 400 400" xmlns="http://www.w3.org/2000/svg">
  <g fill="none" stroke="#000" stroke-width="4" stroke-linecap="round" stroke-linejoin="round">
    <!-- Smiley 1 -->
    <path d="M 50 50 A 20 20 0 1 0 50.1 50" />
    <path d="M 42 45 L 42 48" />
    <path d="M 58 45 L 58 48" />
    <path d="M 40 55 C 45 65 55 65 60 55" />

    <!-- Smiley 2 -->
    <path d="M 300 100 A 15 15 0 1 0 300.1 100" />
    <path d="M 293 95 L 293 98" />
    <path d="M 307 95 L 307 98" />
    <path d="M 292 105 C 295 110 305 110 308 105" />

    <!-- Abstract curves and eyes -->
    <path d="M 150 50 C 160 40 180 50 170 60" />
    <path d="M 250 300 C 260 280 280 290 270 320" />
    <circle cx="100" cy="300" r="4" fill="#000" />
    <circle cx="120" cy="300" r="4" fill="#000" />
    <path d="M 95 315 C 105 325 125 325 130 310" />

    <path d="M 350 250 A 25 25 0 1 0 350.1 250" />
    <circle cx="340" cy="240" r="3" fill="#000" />
    <circle cx="360" cy="240" r="3" fill="#000" />
    <path d="M 335 260 C 345 270 355 270 365 260" />
    
    <!-- Mini face -->
    <circle cx="180" cy="200" r="3" fill="#000" />
    <circle cx="190" cy="200" r="3" fill="#000" />
    <path d="M 180 210 C 185 215 190 215 195 210" />

    <circle cx="50" cy="180" r="2" fill="#000" />
    <circle cx="380" cy="50" r="2" fill="#000" />
    <circle cx="200" cy="380" r="2" fill="#000" />
  </g>
</svg>
